<?xml version="1.0" encoding="UTF-8" standalone="no"?>
<svg
   xmlns:dc="http://purl.org/dc/elements/1.1/"
   xmlns:cc="http://creativecommons.org/ns#"
   xmlns:rdf="http://www.w3.org/1999/02/22-rdf-syntax-ns#"
   xmlns:svg="http://www.w3.org/2000/svg"
   xmlns="http://www.w3.org/2000/svg"
   id="svg5159"
   version="1.1"
   viewBox="0 0 208.77505 206.58656"
   height="206.58656mm"
   width="208.77505mm">
  <defs
     id="defs5153" />
  <metadata
     id="metadata5156">
    <rdf:RDF>
      <cc:Work
         rdf:about="">
        <dc:format>image/svg+xml</dc:format>
        <dc:type
           rdf:resource="http://purl.org/dc/dcmitype/StillImage" />
        <dc:title></dc:title>
      </cc:Work>
    </rdf:RDF>
  </metadata>
  <g
     transform="translate(-5.9815213,-39.492436)"
     id="layer1">
    <g
       id="g5195">
      <g
         id="g196"
         transform="matrix(0.73106071,0,0,-0.73106071,156.24638,131.64816)">
        <path
           d="M 0,0 0.014,-0.017 C 19.191,11.053 43.625,4.325 54.59,-15.04 65.379,-34.091 59.102,-58.275 40.627,-69.589 78.287,-47.196 91.227,1.659 69.477,40.078 47.553,78.816 -1.332,92.271 -39.699,70.135 l 0.01,-0.017 C -58.873,59.056 -65.536,34.389 -54.576,15.021 -43.613,-4.343 -19.176,-11.066 0,0"
           style="fill:#3d3a9b;fill-opacity:1;fill-rule:nonzero;stroke:none"
           id="path198" />
      </g>
      <g
         id="g200"
         transform="matrix(0.73106071,0,0,-0.73106071,109.96395,98.561883)">
        <path
           d="m 0,0 0.012,0.007 c -4.493,21.833 9.39,43.213 31.015,47.755 21.286,4.469 42.131,-9.029 47.08,-30.263 -9.457,43.073 -51.49,70.6 -94.401,61.594 -43.267,-9.087 -71.051,-51.854 -62.052,-95.537 l 0.016,0.004 c 4.496,-21.837 25.678,-35.857 47.307,-31.318 C -9.396,-43.216 4.494,-21.833 0,0"
           style="fill:#3d3a9b;fill-opacity:1;fill-rule:nonzero;stroke:none"
           id="path202" />
      </g>
      <g
         id="g204"
         transform="matrix(0.73106071,0,0,-0.73106071,64.485025,132.77545)">
        <path
           d="m 0,0 0.004,0.015 c -21.961,2.429 -37.811,22.372 -35.409,44.54 2.37,21.81 21.53,37.65 43.059,35.841 -43.502,4.237 -82.423,-27.609 -87.197,-71.602 -4.811,-44.346 26.899,-84.24 70.828,-89.093 v 0.014 c 21.96,-2.431 41.717,13.568 44.123,35.744 C 37.815,-22.37 21.963,-2.43 0,0"
           style="fill:#3d3a9b;fill-opacity:1;fill-rule:nonzero;stroke:none"
           id="path206" />
      </g>
      <g
         id="g208"
         transform="matrix(0.73106071,0,0,-0.73106071,82.666578,187.00883)">
        <path
           d="m 0,0 -0.013,0.002 c -9.076,-20.331 -32.76,-29.388 -52.903,-20.227 -19.812,9.009 -28.817,32.304 -20.462,52.411 -17.43,-40.456 0.543,-87.66 40.512,-105.835 40.287,-18.329 87.668,-0.211 105.823,40.461 l -0.016,0.006 C 82.017,-12.846 73.046,11.063 52.9,20.226 32.762,29.39 9.077,20.327 0,0"
           style="fill:#3d3a9b;fill-opacity:1;fill-rule:nonzero;stroke:none"
           id="path210" />
      </g>
      <g
         id="g212"
         transform="matrix(0.73106071,0,0,-0.73106071,139.37766,186.31418)">
        <path
           d="m 0,0 -0.012,-0.014 c 16.354,-14.998 17.565,-40.537 2.715,-57.04 -14.617,-16.238 -39.344,-17.689 -55.708,-3.449 32.732,-29.233 82.757,-26.572 112.235,6.183 29.717,33.018 27.286,84.11 -5.423,114.111 L 53.795,59.779 C 37.445,74.774 12.15,73.548 -2.709,57.041 -17.566,40.53 -16.348,14.996 0,0"
           style="fill:#3d3a9b;fill-opacity:1;fill-rule:nonzero;stroke:none"
           id="path214" />
      </g>
    </g>
    <g
       id="g5236">
      <g
         transform="matrix(0.73106071,0,0,-0.73106071,156.24638,131.64816)"
         id="g5218">
        <path
           id="path5216"
           style="fill:#3d3a9b;fill-opacity:1;fill-rule:nonzero;stroke:none"
           d="M 0,0 0.014,-0.017 C 19.191,11.053 43.625,4.325 54.59,-15.04 65.379,-34.091 59.102,-58.275 40.627,-69.589 78.287,-47.196 91.227,1.659 69.477,40.078 47.553,78.816 -1.332,92.271 -39.699,70.135 l 0.01,-0.017 C -58.873,59.056 -65.536,34.389 -54.576,15.021 -43.613,-4.343 -19.176,-11.066 0,0" />
      </g>
      <g
         transform="matrix(0.73106071,0,0,-0.73106071,109.96395,98.561883)"
         id="g5222">
        <path
           id="path5220"
           style="fill:#3d3a9b;fill-opacity:1;fill-rule:nonzero;stroke:none"
           d="m 0,0 0.012,0.007 c -4.493,21.833 9.39,43.213 31.015,47.755 21.286,4.469 42.131,-9.029 47.08,-30.263 -9.457,43.073 -51.49,70.6 -94.401,61.594 -43.267,-9.087 -71.051,-51.854 -62.052,-95.537 l 0.016,0.004 c 4.496,-21.837 25.678,-35.857 47.307,-31.318 C -9.396,-43.216 4.494,-21.833 0,0" />
      </g>
      <g
         transform="matrix(0.73106071,0,0,-0.73106071,64.485025,132.77545)"
         id="g5226">
        <path
           id="path5224"
           style="fill:#3d3a9b;fill-opacity:1;fill-rule:nonzero;stroke:none"
           d="m 0,0 0.004,0.015 c -21.961,2.429 -37.811,22.372 -35.409,44.54 2.37,21.81 21.53,37.65 43.059,35.841 -43.502,4.237 -82.423,-27.609 -87.197,-71.602 -4.811,-44.346 26.899,-84.24 70.828,-89.093 v 0.014 c 21.96,-2.431 41.717,13.568 44.123,35.744 C 37.815,-22.37 21.963,-2.43 0,0" />
      </g>
      <g
         transform="matrix(0.73106071,0,0,-0.73106071,82.666578,187.00883)"
         id="g5230">
        <path
           id="path5228"
           style="fill:#3d3a9b;fill-opacity:1;fill-rule:nonzero;stroke:none"
           d="m 0,0 -0.013,0.002 c -9.076,-20.331 -32.76,-29.388 -52.903,-20.227 -19.812,9.009 -28.817,32.304 -20.462,52.411 -17.43,-40.456 0.543,-87.66 40.512,-105.835 40.287,-18.329 87.668,-0.211 105.823,40.461 l -0.016,0.006 C 82.017,-12.846 73.046,11.063 52.9,20.226 32.762,29.39 9.077,20.327 0,0" />
      </g>
      <g
         transform="matrix(0.73106071,0,0,-0.73106071,139.37766,186.31418)"
         id="g5234">
        <path
           id="path5232"
           style="fill:#3d3a9b;fill-opacity:1;fill-rule:nonzero;stroke:none"
           d="m 0,0 -0.012,-0.014 c 16.354,-14.998 17.565,-40.537 2.715,-57.04 -14.617,-16.238 -39.344,-17.689 -55.708,-3.449 32.732,-29.233 82.757,-26.572 112.235,6.183 29.717,33.018 27.286,84.11 -5.423,114.111 L 53.795,59.779 C 37.445,74.774 12.15,73.548 -2.709,57.041 -17.566,40.53 -16.348,14.996 0,0" />
      </g>
    </g>
    <g
       id="g5258">
      <g
         id="g5240"
         transform="matrix(0.73106071,0,0,-0.73106071,156.24638,131.64816)">
        <path
           d="M 0,0 0.014,-0.017 C 19.191,11.053 43.625,4.325 54.59,-15.04 65.379,-34.091 59.102,-58.275 40.627,-69.589 78.287,-47.196 91.227,1.659 69.477,40.078 47.553,78.816 -1.332,92.271 -39.699,70.135 l 0.01,-0.017 C -58.873,59.056 -65.536,34.389 -54.576,15.021 -43.613,-4.343 -19.176,-11.066 0,0"
           style="fill:#3d3a9b;fill-opacity:1;fill-rule:nonzero;stroke:none"
           id="path5238" />
      </g>
      <g
         id="g5244"
         transform="matrix(0.73106071,0,0,-0.73106071,109.96395,98.561883)">
        <path
           d="m 0,0 0.012,0.007 c -4.493,21.833 9.39,43.213 31.015,47.755 21.286,4.469 42.131,-9.029 47.08,-30.263 -9.457,43.073 -51.49,70.6 -94.401,61.594 -43.267,-9.087 -71.051,-51.854 -62.052,-95.537 l 0.016,0.004 c 4.496,-21.837 25.678,-35.857 47.307,-31.318 C -9.396,-43.216 4.494,-21.833 0,0"
           style="fill:#3d3a9b;fill-opacity:1;fill-rule:nonzero;stroke:none"
           id="path5242" />
      </g>
      <g
         id="g5248"
         transform="matrix(0.73106071,0,0,-0.73106071,64.485025,132.77545)">
        <path
           d="m 0,0 0.004,0.015 c -21.961,2.429 -37.811,22.372 -35.409,44.54 2.37,21.81 21.53,37.65 43.059,35.841 -43.502,4.237 -82.423,-27.609 -87.197,-71.602 -4.811,-44.346 26.899,-84.24 70.828,-89.093 v 0.014 c 21.96,-2.431 41.717,13.568 44.123,35.744 C 37.815,-22.37 21.963,-2.43 0,0"
           style="fill:#3d3a9b;fill-opacity:1;fill-rule:nonzero;stroke:none"
           id="path5246" />
      </g>
      <g
         id="g5252"
         transform="matrix(0.73106071,0,0,-0.73106071,82.666578,187.00883)">
        <path
           d="m 0,0 -0.013,0.002 c -9.076,-20.331 -32.76,-29.388 -52.903,-20.227 -19.812,9.009 -28.817,32.304 -20.462,52.411 -17.43,-40.456 0.543,-87.66 40.512,-105.835 40.287,-18.329 87.668,-0.211 105.823,40.461 l -0.016,0.006 C 82.017,-12.846 73.046,11.063 52.9,20.226 32.762,29.39 9.077,20.327 0,0"
           style="fill:#3d3a9b;fill-opacity:1;fill-rule:nonzero;stroke:none"
           id="path5250" />
      </g>
      <g
         id="g5256"
         transform="matrix(0.73106071,0,0,-0.73106071,139.37766,186.31418)">
        <path
           d="m 0,0 -0.012,-0.014 c 16.354,-14.998 17.565,-40.537 2.715,-57.04 -14.617,-16.238 -39.344,-17.689 -55.708,-3.449 32.732,-29.233 82.757,-26.572 112.235,6.183 29.717,33.018 27.286,84.11 -5.423,114.111 L 53.795,59.779 C 37.445,74.774 12.15,73.548 -2.709,57.041 -17.566,40.53 -16.348,14.996 0,0"
           style="fill:#3d3a9b;fill-opacity:1;fill-rule:nonzero;stroke:none"
           id="path5254" />
      </g>
    </g>
    <g
       id="g5299">
      <g
         transform="matrix(0.73106071,0,0,-0.73106071,156.24638,131.64816)"
         id="g5281">
        <path
           id="path5279"
           style="fill:#3d3a9b;fill-opacity:1;fill-rule:nonzero;stroke:none"
           d="M 0,0 0.014,-0.017 C 19.191,11.053 43.625,4.325 54.59,-15.04 65.379,-34.091 59.102,-58.275 40.627,-69.589 78.287,-47.196 91.227,1.659 69.477,40.078 47.553,78.816 -1.332,92.271 -39.699,70.135 l 0.01,-0.017 C -58.873,59.056 -65.536,34.389 -54.576,15.021 -43.613,-4.343 -19.176,-11.066 0,0" />
      </g>
      <g
         transform="matrix(0.73106071,0,0,-0.73106071,109.96395,98.561883)"
         id="g5285">
        <path
           id="path5283"
           style="fill:#3d3a9b;fill-opacity:1;fill-rule:nonzero;stroke:none"
           d="m 0,0 0.012,0.007 c -4.493,21.833 9.39,43.213 31.015,47.755 21.286,4.469 42.131,-9.029 47.08,-30.263 -9.457,43.073 -51.49,70.6 -94.401,61.594 -43.267,-9.087 -71.051,-51.854 -62.052,-95.537 l 0.016,0.004 c 4.496,-21.837 25.678,-35.857 47.307,-31.318 C -9.396,-43.216 4.494,-21.833 0,0" />
      </g>
      <g
         transform="matrix(0.73106071,0,0,-0.73106071,64.485025,132.77545)"
         id="g5289">
        <path
           id="path5287"
           style="fill:#3d3a9b;fill-opacity:1;fill-rule:nonzero;stroke:none"
           d="m 0,0 0.004,0.015 c -21.961,2.429 -37.811,22.372 -35.409,44.54 2.37,21.81 21.53,37.65 43.059,35.841 -43.502,4.237 -82.423,-27.609 -87.197,-71.602 -4.811,-44.346 26.899,-84.24 70.828,-89.093 v 0.014 c 21.96,-2.431 41.717,13.568 44.123,35.744 C 37.815,-22.37 21.963,-2.43 0,0" />
      </g>
      <g
         transform="matrix(0.73106071,0,0,-0.73106071,82.666578,187.00883)"
         id="g5293">
        <path
           id="path5291"
           style="fill:#3d3a9b;fill-opacity:1;fill-rule:nonzero;stroke:none"
           d="m 0,0 -0.013,0.002 c -9.076,-20.331 -32.76,-29.388 -52.903,-20.227 -19.812,9.009 -28.817,32.304 -20.462,52.411 -17.43,-40.456 0.543,-87.66 40.512,-105.835 40.287,-18.329 87.668,-0.211 105.823,40.461 l -0.016,0.006 C 82.017,-12.846 73.046,11.063 52.9,20.226 32.762,29.39 9.077,20.327 0,0" />
      </g>
      <g
         transform="matrix(0.73106071,0,0,-0.73106071,139.37766,186.31418)"
         id="g5297">
        <path
           id="path5295"
           style="fill:#3d3a9b;fill-opacity:1;fill-rule:nonzero;stroke:none"
           d="m 0,0 -0.012,-0.014 c 16.354,-14.998 17.565,-40.537 2.715,-57.04 -14.617,-16.238 -39.344,-17.689 -55.708,-3.449 32.732,-29.233 82.757,-26.572 112.235,6.183 29.717,33.018 27.286,84.11 -5.423,114.111 L 53.795,59.779 C 37.445,74.774 12.15,73.548 -2.709,57.041 -17.566,40.53 -16.348,14.996 0,0" />
      </g>
    </g>
    <g
       id="g5340">
      <g
         id="g5322"
         transform="matrix(0.73106071,0,0,-0.73106071,156.24638,131.64816)">
        <path
           d="M 0,0 0.014,-0.017 C 19.191,11.053 43.625,4.325 54.59,-15.04 65.379,-34.091 59.102,-58.275 40.627,-69.589 78.287,-47.196 91.227,1.659 69.477,40.078 47.553,78.816 -1.332,92.271 -39.699,70.135 l 0.01,-0.017 C -58.873,59.056 -65.536,34.389 -54.576,15.021 -43.613,-4.343 -19.176,-11.066 0,0"
           style="fill:#3d3a9b;fill-opacity:1;fill-rule:nonzero;stroke:none"
           id="path5320" />
      </g>
      <g
         id="g5326"
         transform="matrix(0.73106071,0,0,-0.73106071,109.96395,98.561883)">
        <path
           d="m 0,0 0.012,0.007 c -4.493,21.833 9.39,43.213 31.015,47.755 21.286,4.469 42.131,-9.029 47.08,-30.263 -9.457,43.073 -51.49,70.6 -94.401,61.594 -43.267,-9.087 -71.051,-51.854 -62.052,-95.537 l 0.016,0.004 c 4.496,-21.837 25.678,-35.857 47.307,-31.318 C -9.396,-43.216 4.494,-21.833 0,0"
           style="fill:#3d3a9b;fill-opacity:1;fill-rule:nonzero;stroke:none"
           id="path5324" />
      </g>
      <g
         id="g5330"
         transform="matrix(0.73106071,0,0,-0.73106071,64.485025,132.77545)">
        <path
           d="m 0,0 0.004,0.015 c -21.961,2.429 -37.811,22.372 -35.409,44.54 2.37,21.81 21.53,37.65 43.059,35.841 -43.502,4.237 -82.423,-27.609 -87.197,-71.602 -4.811,-44.346 26.899,-84.24 70.828,-89.093 v 0.014 c 21.96,-2.431 41.717,13.568 44.123,35.744 C 37.815,-22.37 21.963,-2.43 0,0"
           style="fill:#3d3a9b;fill-opacity:1;fill-rule:nonzero;stroke:none"
           id="path5328" />
      </g>
      <g
         id="g5334"
         transform="matrix(0.73106071,0,0,-0.73106071,82.666578,187.00883)">
        <path
           d="m 0,0 -0.013,0.002 c -9.076,-20.331 -32.76,-29.388 -52.903,-20.227 -19.812,9.009 -28.817,32.304 -20.462,52.411 -17.43,-40.456 0.543,-87.66 40.512,-105.835 40.287,-18.329 87.668,-0.211 105.823,40.461 l -0.016,0.006 C 82.017,-12.846 73.046,11.063 52.9,20.226 32.762,29.39 9.077,20.327 0,0"
           style="fill:#3d3a9b;fill-opacity:1;fill-rule:nonzero;stroke:none"
           id="path5332" />
      </g>
      <g
         id="g5338"
         transform="matrix(0.73106071,0,0,-0.73106071,139.37766,186.31418)">
        <path
           d="m 0,0 -0.012,-0.014 c 16.354,-14.998 17.565,-40.537 2.715,-57.04 -14.617,-16.238 -39.344,-17.689 -55.708,-3.449 32.732,-29.233 82.757,-26.572 112.235,6.183 29.717,33.018 27.286,84.11 -5.423,114.111 L 53.795,59.779 C 37.445,74.774 12.15,73.548 -2.709,57.041 -17.566,40.53 -16.348,14.996 0,0"
           style="fill:#3d3a9b;fill-opacity:1;fill-rule:nonzero;stroke:none"
           id="path5336" />
      </g>
    </g>
    <g
       id="g5362">
      <g
         transform="matrix(0.73106071,0,0,-0.73106071,156.24638,131.64816)"
         id="g5344">
        <path
           id="path5342"
           style="fill:#3d3a9b;fill-opacity:1;fill-rule:nonzero;stroke:none"
           d="M 0,0 0.014,-0.017 C 19.191,11.053 43.625,4.325 54.59,-15.04 65.379,-34.091 59.102,-58.275 40.627,-69.589 78.287,-47.196 91.227,1.659 69.477,40.078 47.553,78.816 -1.332,92.271 -39.699,70.135 l 0.01,-0.017 C -58.873,59.056 -65.536,34.389 -54.576,15.021 -43.613,-4.343 -19.176,-11.066 0,0" />
      </g>
      <g
         transform="matrix(0.73106071,0,0,-0.73106071,109.96395,98.561883)"
         id="g5348">
        <path
           id="path5346"
           style="fill:#3d3a9b;fill-opacity:1;fill-rule:nonzero;stroke:none"
           d="m 0,0 0.012,0.007 c -4.493,21.833 9.39,43.213 31.015,47.755 21.286,4.469 42.131,-9.029 47.08,-30.263 -9.457,43.073 -51.49,70.6 -94.401,61.594 -43.267,-9.087 -71.051,-51.854 -62.052,-95.537 l 0.016,0.004 c 4.496,-21.837 25.678,-35.857 47.307,-31.318 C -9.396,-43.216 4.494,-21.833 0,0" />
      </g>
      <g
         transform="matrix(0.73106071,0,0,-0.73106071,64.485025,132.77545)"
         id="g5352">
        <path
           id="path5350"
           style="fill:#3d3a9b;fill-opacity:1;fill-rule:nonzero;stroke:none"
           d="m 0,0 0.004,0.015 c -21.961,2.429 -37.811,22.372 -35.409,44.54 2.37,21.81 21.53,37.65 43.059,35.841 -43.502,4.237 -82.423,-27.609 -87.197,-71.602 -4.811,-44.346 26.899,-84.24 70.828,-89.093 v 0.014 c 21.96,-2.431 41.717,13.568 44.123,35.744 C 37.815,-22.37 21.963,-2.43 0,0" />
      </g>
      <g
         transform="matrix(0.73106071,0,0,-0.73106071,82.666578,187.00883)"
         id="g5356">
        <path
           id="path5354"
           style="fill:#3d3a9b;fill-opacity:1;fill-rule:nonzero;stroke:none"
           d="m 0,0 -0.013,0.002 c -9.076,-20.331 -32.76,-29.388 -52.903,-20.227 -19.812,9.009 -28.817,32.304 -20.462,52.411 -17.43,-40.456 0.543,-87.66 40.512,-105.835 40.287,-18.329 87.668,-0.211 105.823,40.461 l -0.016,0.006 C 82.017,-12.846 73.046,11.063 52.9,20.226 32.762,29.39 9.077,20.327 0,0" />
      </g>
      <g
         transform="matrix(0.73106071,0,0,-0.73106071,139.37766,186.31418)"
         id="g5360">
        <path
           id="path5358"
           style="fill:#3d3a9b;fill-opacity:1;fill-rule:nonzero;stroke:none"
           d="m 0,0 -0.012,-0.014 c 16.354,-14.998 17.565,-40.537 2.715,-57.04 -14.617,-16.238 -39.344,-17.689 -55.708,-3.449 32.732,-29.233 82.757,-26.572 112.235,6.183 29.717,33.018 27.286,84.11 -5.423,114.111 L 53.795,59.779 C 37.445,74.774 12.15,73.548 -2.709,57.041 -17.566,40.53 -16.348,14.996 0,0" />
      </g>
    </g>
    <g
       id="g5384">
      <g
         id="g5366"
         transform="matrix(0.73106071,0,0,-0.73106071,156.24638,131.64816)">
        <path
           d="M 0,0 0.014,-0.017 C 19.191,11.053 43.625,4.325 54.59,-15.04 65.379,-34.091 59.102,-58.275 40.627,-69.589 78.287,-47.196 91.227,1.659 69.477,40.078 47.553,78.816 -1.332,92.271 -39.699,70.135 l 0.01,-0.017 C -58.873,59.056 -65.536,34.389 -54.576,15.021 -43.613,-4.343 -19.176,-11.066 0,0"
           style="fill:#3d3a9b;fill-opacity:1;fill-rule:nonzero;stroke:none"
           id="path5364" />
      </g>
      <g
         id="g5370"
         transform="matrix(0.73106071,0,0,-0.73106071,109.96395,98.561883)">
        <path
           d="m 0,0 0.012,0.007 c -4.493,21.833 9.39,43.213 31.015,47.755 21.286,4.469 42.131,-9.029 47.08,-30.263 -9.457,43.073 -51.49,70.6 -94.401,61.594 -43.267,-9.087 -71.051,-51.854 -62.052,-95.537 l 0.016,0.004 c 4.496,-21.837 25.678,-35.857 47.307,-31.318 C -9.396,-43.216 4.494,-21.833 0,0"
           style="fill:#3d3a9b;fill-opacity:1;fill-rule:nonzero;stroke:none"
           id="path5368" />
      </g>
      <g
         id="g5374"
         transform="matrix(0.73106071,0,0,-0.73106071,64.485025,132.77545)">
        <path
           d="m 0,0 0.004,0.015 c -21.961,2.429 -37.811,22.372 -35.409,44.54 2.37,21.81 21.53,37.65 43.059,35.841 -43.502,4.237 -82.423,-27.609 -87.197,-71.602 -4.811,-44.346 26.899,-84.24 70.828,-89.093 v 0.014 c 21.96,-2.431 41.717,13.568 44.123,35.744 C 37.815,-22.37 21.963,-2.43 0,0"
           style="fill:#3d3a9b;fill-opacity:1;fill-rule:nonzero;stroke:none"
           id="path5372" />
      </g>
      <g
         id="g5378"
         transform="matrix(0.73106071,0,0,-0.73106071,82.666578,187.00883)">
        <path
           d="m 0,0 -0.013,0.002 c -9.076,-20.331 -32.76,-29.388 -52.903,-20.227 -19.812,9.009 -28.817,32.304 -20.462,52.411 -17.43,-40.456 0.543,-87.66 40.512,-105.835 40.287,-18.329 87.668,-0.211 105.823,40.461 l -0.016,0.006 C 82.017,-12.846 73.046,11.063 52.9,20.226 32.762,29.39 9.077,20.327 0,0"
           style="fill:#3d3a9b;fill-opacity:1;fill-rule:nonzero;stroke:none"
           id="path5376" />
      </g>
      <g
         id="g5382"
         transform="matrix(0.73106071,0,0,-0.73106071,139.37766,186.31418)">
        <path
           d="m 0,0 -0.012,-0.014 c 16.354,-14.998 17.565,-40.537 2.715,-57.04 -14.617,-16.238 -39.344,-17.689 -55.708,-3.449 32.732,-29.233 82.757,-26.572 112.235,6.183 29.717,33.018 27.286,84.11 -5.423,114.111 L 53.795,59.779 C 37.445,74.774 12.15,73.548 -2.709,57.041 -17.566,40.53 -16.348,14.996 0,0"
           style="fill:#3d3a9b;fill-opacity:1;fill-rule:nonzero;stroke:none"
           id="path5380" />
      </g>
    </g>
    <g
       id="g5406">
      <g
         transform="matrix(0.73106071,0,0,-0.73106071,156.24638,131.64816)"
         id="g5388">
        <path
           id="path5386"
           style="fill:#3d3a9b;fill-opacity:1;fill-rule:nonzero;stroke:none"
           d="M 0,0 0.014,-0.017 C 19.191,11.053 43.625,4.325 54.59,-15.04 65.379,-34.091 59.102,-58.275 40.627,-69.589 78.287,-47.196 91.227,1.659 69.477,40.078 47.553,78.816 -1.332,92.271 -39.699,70.135 l 0.01,-0.017 C -58.873,59.056 -65.536,34.389 -54.576,15.021 -43.613,-4.343 -19.176,-11.066 0,0" />
      </g>
      <g
         transform="matrix(0.73106071,0,0,-0.73106071,109.96395,98.561883)"
         id="g5392">
        <path
           id="path5390"
           style="fill:#3d3a9b;fill-opacity:1;fill-rule:nonzero;stroke:none"
           d="m 0,0 0.012,0.007 c -4.493,21.833 9.39,43.213 31.015,47.755 21.286,4.469 42.131,-9.029 47.08,-30.263 -9.457,43.073 -51.49,70.6 -94.401,61.594 -43.267,-9.087 -71.051,-51.854 -62.052,-95.537 l 0.016,0.004 c 4.496,-21.837 25.678,-35.857 47.307,-31.318 C -9.396,-43.216 4.494,-21.833 0,0" />
      </g>
      <g
         transform="matrix(0.73106071,0,0,-0.73106071,64.485025,132.77545)"
         id="g5396">
        <path
           id="path5394"
           style="fill:#3d3a9b;fill-opacity:1;fill-rule:nonzero;stroke:none"
           d="m 0,0 0.004,0.015 c -21.961,2.429 -37.811,22.372 -35.409,44.54 2.37,21.81 21.53,37.65 43.059,35.841 -43.502,4.237 -82.423,-27.609 -87.197,-71.602 -4.811,-44.346 26.899,-84.24 70.828,-89.093 v 0.014 c 21.96,-2.431 41.717,13.568 44.123,35.744 C 37.815,-22.37 21.963,-2.43 0,0" />
      </g>
      <g
         transform="matrix(0.73106071,0,0,-0.73106071,82.666578,187.00883)"
         id="g5400">
        <path
           id="path5398"
           style="fill:#3d3a9b;fill-opacity:1;fill-rule:nonzero;stroke:none"
           d="m 0,0 -0.013,0.002 c -9.076,-20.331 -32.76,-29.388 -52.903,-20.227 -19.812,9.009 -28.817,32.304 -20.462,52.411 -17.43,-40.456 0.543,-87.66 40.512,-105.835 40.287,-18.329 87.668,-0.211 105.823,40.461 l -0.016,0.006 C 82.017,-12.846 73.046,11.063 52.9,20.226 32.762,29.39 9.077,20.327 0,0" />
      </g>
      <g
         transform="matrix(0.73106071,0,0,-0.73106071,139.37766,186.31418)"
         id="g5404">
        <path
           id="path5402"
           style="fill:#3d3a9b;fill-opacity:1;fill-rule:nonzero;stroke:none"
           d="m 0,0 -0.012,-0.014 c 16.354,-14.998 17.565,-40.537 2.715,-57.04 -14.617,-16.238 -39.344,-17.689 -55.708,-3.449 32.732,-29.233 82.757,-26.572 112.235,6.183 29.717,33.018 27.286,84.11 -5.423,114.111 L 53.795,59.779 C 37.445,74.774 12.15,73.548 -2.709,57.041 -17.566,40.53 -16.348,14.996 0,0" />
      </g>
    </g>
    <g
       id="g5428">
      <g
         id="g5410"
         transform="matrix(0.73106071,0,0,-0.73106071,156.24638,131.64816)">
        <path
           d="M 0,0 0.014,-0.017 C 19.191,11.053 43.625,4.325 54.59,-15.04 65.379,-34.091 59.102,-58.275 40.627,-69.589 78.287,-47.196 91.227,1.659 69.477,40.078 47.553,78.816 -1.332,92.271 -39.699,70.135 l 0.01,-0.017 C -58.873,59.056 -65.536,34.389 -54.576,15.021 -43.613,-4.343 -19.176,-11.066 0,0"
           style="fill:#3d3a9b;fill-opacity:1;fill-rule:nonzero;stroke:none"
           id="path5408" />
      </g>
      <g
         id="g5414"
         transform="matrix(0.73106071,0,0,-0.73106071,109.96395,98.561883)">
        <path
           d="m 0,0 0.012,0.007 c -4.493,21.833 9.39,43.213 31.015,47.755 21.286,4.469 42.131,-9.029 47.08,-30.263 -9.457,43.073 -51.49,70.6 -94.401,61.594 -43.267,-9.087 -71.051,-51.854 -62.052,-95.537 l 0.016,0.004 c 4.496,-21.837 25.678,-35.857 47.307,-31.318 C -9.396,-43.216 4.494,-21.833 0,0"
           style="fill:#3d3a9b;fill-opacity:1;fill-rule:nonzero;stroke:none"
           id="path5412" />
      </g>
      <g
         id="g5418"
         transform="matrix(0.73106071,0,0,-0.73106071,64.485025,132.77545)">
        <path
           d="m 0,0 0.004,0.015 c -21.961,2.429 -37.811,22.372 -35.409,44.54 2.37,21.81 21.53,37.65 43.059,35.841 -43.502,4.237 -82.423,-27.609 -87.197,-71.602 -4.811,-44.346 26.899,-84.24 70.828,-89.093 v 0.014 c 21.96,-2.431 41.717,13.568 44.123,35.744 C 37.815,-22.37 21.963,-2.43 0,0"
           style="fill:#3d3a9b;fill-opacity:1;fill-rule:nonzero;stroke:none"
           id="path5416" />
      </g>
      <g
         id="g5422"
         transform="matrix(0.73106071,0,0,-0.73106071,82.666578,187.00883)">
        <path
           d="m 0,0 -0.013,0.002 c -9.076,-20.331 -32.76,-29.388 -52.903,-20.227 -19.812,9.009 -28.817,32.304 -20.462,52.411 -17.43,-40.456 0.543,-87.66 40.512,-105.835 40.287,-18.329 87.668,-0.211 105.823,40.461 l -0.016,0.006 C 82.017,-12.846 73.046,11.063 52.9,20.226 32.762,29.39 9.077,20.327 0,0"
           style="fill:#3d3a9b;fill-opacity:1;fill-rule:nonzero;stroke:none"
           id="path5420" />
      </g>
      <g
         id="g5426"
         transform="matrix(0.73106071,0,0,-0.73106071,139.37766,186.31418)">
        <path
           d="m 0,0 -0.012,-0.014 c 16.354,-14.998 17.565,-40.537 2.715,-57.04 -14.617,-16.238 -39.344,-17.689 -55.708,-3.449 32.732,-29.233 82.757,-26.572 112.235,6.183 29.717,33.018 27.286,84.11 -5.423,114.111 L 53.795,59.779 C 37.445,74.774 12.15,73.548 -2.709,57.041 -17.566,40.53 -16.348,14.996 0,0"
           style="fill:#3d3a9b;fill-opacity:1;fill-rule:nonzero;stroke:none"
           id="path5424" />
      </g>
    </g>
    <g
       id="g5450">
      <g
         transform="matrix(0.73106071,0,0,-0.73106071,156.24638,131.64816)"
         id="g5432">
        <path
           id="path5430"
           style="fill:#3d3a9b;fill-opacity:1;fill-rule:nonzero;stroke:none"
           d="M 0,0 0.014,-0.017 C 19.191,11.053 43.625,4.325 54.59,-15.04 65.379,-34.091 59.102,-58.275 40.627,-69.589 78.287,-47.196 91.227,1.659 69.477,40.078 47.553,78.816 -1.332,92.271 -39.699,70.135 l 0.01,-0.017 C -58.873,59.056 -65.536,34.389 -54.576,15.021 -43.613,-4.343 -19.176,-11.066 0,0" />
      </g>
      <g
         transform="matrix(0.73106071,0,0,-0.73106071,109.96395,98.561883)"
         id="g5436">
        <path
           id="path5434"
           style="fill:#3d3a9b;fill-opacity:1;fill-rule:nonzero;stroke:none"
           d="m 0,0 0.012,0.007 c -4.493,21.833 9.39,43.213 31.015,47.755 21.286,4.469 42.131,-9.029 47.08,-30.263 -9.457,43.073 -51.49,70.6 -94.401,61.594 -43.267,-9.087 -71.051,-51.854 -62.052,-95.537 l 0.016,0.004 c 4.496,-21.837 25.678,-35.857 47.307,-31.318 C -9.396,-43.216 4.494,-21.833 0,0" />
      </g>
      <g
         transform="matrix(0.73106071,0,0,-0.73106071,64.485025,132.77545)"
         id="g5440">
        <path
           id="path5438"
           style="fill:#3d3a9b;fill-opacity:1;fill-rule:nonzero;stroke:none"
           d="m 0,0 0.004,0.015 c -21.961,2.429 -37.811,22.372 -35.409,44.54 2.37,21.81 21.53,37.65 43.059,35.841 -43.502,4.237 -82.423,-27.609 -87.197,-71.602 -4.811,-44.346 26.899,-84.24 70.828,-89.093 v 0.014 c 21.96,-2.431 41.717,13.568 44.123,35.744 C 37.815,-22.37 21.963,-2.43 0,0" />
      </g>
      <g
         transform="matrix(0.73106071,0,0,-0.73106071,82.666578,187.00883)"
         id="g5444">
        <path
           id="path5442"
           style="fill:#3d3a9b;fill-opacity:1;fill-rule:nonzero;stroke:none"
           d="m 0,0 -0.013,0.002 c -9.076,-20.331 -32.76,-29.388 -52.903,-20.227 -19.812,9.009 -28.817,32.304 -20.462,52.411 -17.43,-40.456 0.543,-87.66 40.512,-105.835 40.287,-18.329 87.668,-0.211 105.823,40.461 l -0.016,0.006 C 82.017,-12.846 73.046,11.063 52.9,20.226 32.762,29.39 9.077,20.327 0,0" />
      </g>
      <g
         transform="matrix(0.73106071,0,0,-0.73106071,139.37766,186.31418)"
         id="g5448">
        <path
           id="path5446"
           style="fill:#3d3a9b;fill-opacity:1;fill-rule:nonzero;stroke:none"
           d="m 0,0 -0.012,-0.014 c 16.354,-14.998 17.565,-40.537 2.715,-57.04 -14.617,-16.238 -39.344,-17.689 -55.708,-3.449 32.732,-29.233 82.757,-26.572 112.235,6.183 29.717,33.018 27.286,84.11 -5.423,114.111 L 53.795,59.779 C 37.445,74.774 12.15,73.548 -2.709,57.041 -17.566,40.53 -16.348,14.996 0,0" />
      </g>
    </g>
  </g>
</svg>
