<?xml version="1.0" encoding="UTF-8" standalone="no"?>
<svg
   xmlns:dc="http://purl.org/dc/elements/1.1/"
   xmlns:cc="http://creativecommons.org/ns#"
   xmlns:rdf="http://www.w3.org/1999/02/22-rdf-syntax-ns#"
   xmlns:svg="http://www.w3.org/2000/svg"
   xmlns="http://www.w3.org/2000/svg"
   xmlns:sodipodi="http://sodipodi.sourceforge.net/DTD/sodipodi-0.dtd"
   xmlns:inkscape="http://www.inkscape.org/namespaces/inkscape"
   id="svg5159"
   version="1.1"
   viewBox="0 0 135.46666 134.04694"
   height="134.04694mm"
   width="135.46666mm"
   sodipodi:docname="mlnet.svg"
   inkscape:version="0.92.3 (2405546, 2018-03-11)">
  <sodipodi:namedview
     pagecolor="#ffffff"
     bordercolor="#666666"
     borderopacity="1"
     objecttolerance="10"
     gridtolerance="10"
     guidetolerance="10"
     inkscape:pageopacity="0"
     inkscape:pageshadow="2"
     inkscape:window-width="948"
     inkscape:window-height="695"
     id="namedview111"
     showgrid="false"
     inkscape:zoom="0.46581942"
     inkscape:cx="351.36586"
     inkscape:cy="253.31704"
     inkscape:window-x="1464"
     inkscape:window-y="451"
     inkscape:window-maximized="0"
     inkscape:current-layer="svg5159" />
  <defs
     id="defs5153" />
  <metadata
     id="metadata5156">
    <rdf:RDF>
      <cc:Work
         rdf:about="">
        <dc:format>image/svg+xml</dc:format>
        <dc:type
           rdf:resource="http://purl.org/dc/dcmitype/StillImage" />
        <dc:title />
      </cc:Work>
    </rdf:RDF>
  </metadata>
  <g
     transform="translate(-5.9815212,-112.03252)"
     id="layer1"
     style="fill:#ffffff">
    <g
       transform="matrix(0.64886425,0,0,0.64886425,2.1003259,86.407293)"
       id="g5571"
       style="fill:#ffffff">
      <g
         id="g5195"
         style="fill:#ffffff">
        <g
           transform="matrix(0.73106071,0,0,-0.73106071,156.24638,131.64816)"
           id="g196"
           style="fill:#ffffff">
          <path
             id="path198"
             style="fill:#ffffff;fill-opacity:1;fill-rule:nonzero;stroke:none"
             d="M 0,0 0.014,-0.017 C 19.191,11.053 43.625,4.325 54.59,-15.04 65.379,-34.091 59.102,-58.275 40.627,-69.589 78.287,-47.196 91.227,1.659 69.477,40.078 47.553,78.816 -1.332,92.271 -39.699,70.135 l 0.01,-0.017 C -58.873,59.056 -65.536,34.389 -54.576,15.021 -43.613,-4.343 -19.176,-11.066 0,0" />
        </g>
        <g
           transform="matrix(0.73106071,0,0,-0.73106071,109.96395,98.561883)"
           id="g200"
           style="fill:#ffffff">
          <path
             id="path202"
             style="fill:#ffffff;fill-opacity:1;fill-rule:nonzero;stroke:none"
             d="m 0,0 0.012,0.007 c -4.493,21.833 9.39,43.213 31.015,47.755 21.286,4.469 42.131,-9.029 47.08,-30.263 -9.457,43.073 -51.49,70.6 -94.401,61.594 -43.267,-9.087 -71.051,-51.854 -62.052,-95.537 l 0.016,0.004 c 4.496,-21.837 25.678,-35.857 47.307,-31.318 C -9.396,-43.216 4.494,-21.833 0,0" />
        </g>
        <g
           transform="matrix(0.73106071,0,0,-0.73106071,64.485025,132.77545)"
           id="g204"
           style="fill:#ffffff">
          <path
             id="path206"
             style="fill:#ffffff;fill-opacity:1;fill-rule:nonzero;stroke:none"
             d="m 0,0 0.004,0.015 c -21.961,2.429 -37.811,22.372 -35.409,44.54 2.37,21.81 21.53,37.65 43.059,35.841 -43.502,4.237 -82.423,-27.609 -87.197,-71.602 -4.811,-44.346 26.899,-84.24 70.828,-89.093 v 0.014 c 21.96,-2.431 41.717,13.568 44.123,35.744 C 37.815,-22.37 21.963,-2.43 0,0" />
        </g>
        <g
           transform="matrix(0.73106071,0,0,-0.73106071,82.666578,187.00883)"
           id="g208"
           style="fill:#ffffff">
          <path
             id="path210"
             style="fill:#ffffff;fill-opacity:1;fill-rule:nonzero;stroke:none"
             d="m 0,0 -0.013,0.002 c -9.076,-20.331 -32.76,-29.388 -52.903,-20.227 -19.812,9.009 -28.817,32.304 -20.462,52.411 -17.43,-40.456 0.543,-87.66 40.512,-105.835 40.287,-18.329 87.668,-0.211 105.823,40.461 l -0.016,0.006 C 82.017,-12.846 73.046,11.063 52.9,20.226 32.762,29.39 9.077,20.327 0,0" />
        </g>
        <g
           transform="matrix(0.73106071,0,0,-0.73106071,139.37766,186.31418)"
           id="g212"
           style="fill:#ffffff">
          <path
             id="path214"
             style="fill:#ffffff;fill-opacity:1;fill-rule:nonzero;stroke:none"
             d="m 0,0 -0.012,-0.014 c 16.354,-14.998 17.565,-40.537 2.715,-57.04 -14.617,-16.238 -39.344,-17.689 -55.708,-3.449 32.732,-29.233 82.757,-26.572 112.235,6.183 29.717,33.018 27.286,84.11 -5.423,114.111 L 53.795,59.779 C 37.445,74.774 12.15,73.548 -2.709,57.041 -17.566,40.53 -16.348,14.996 0,0" />
        </g>
      </g>
      <g
         id="g5236"
         style="fill:#ffffff">
        <g
           id="g5218"
           transform="matrix(0.73106071,0,0,-0.73106071,156.24638,131.64816)"
           style="fill:#ffffff">
          <path
             d="M 0,0 0.014,-0.017 C 19.191,11.053 43.625,4.325 54.59,-15.04 65.379,-34.091 59.102,-58.275 40.627,-69.589 78.287,-47.196 91.227,1.659 69.477,40.078 47.553,78.816 -1.332,92.271 -39.699,70.135 l 0.01,-0.017 C -58.873,59.056 -65.536,34.389 -54.576,15.021 -43.613,-4.343 -19.176,-11.066 0,0"
             style="fill:#ffffff;fill-opacity:1;fill-rule:nonzero;stroke:none"
             id="path5216" />
        </g>
        <g
           id="g5222"
           transform="matrix(0.73106071,0,0,-0.73106071,109.96395,98.561883)"
           style="fill:#ffffff">
          <path
             d="m 0,0 0.012,0.007 c -4.493,21.833 9.39,43.213 31.015,47.755 21.286,4.469 42.131,-9.029 47.08,-30.263 -9.457,43.073 -51.49,70.6 -94.401,61.594 -43.267,-9.087 -71.051,-51.854 -62.052,-95.537 l 0.016,0.004 c 4.496,-21.837 25.678,-35.857 47.307,-31.318 C -9.396,-43.216 4.494,-21.833 0,0"
             style="fill:#ffffff;fill-opacity:1;fill-rule:nonzero;stroke:none"
             id="path5220" />
        </g>
        <g
           id="g5226"
           transform="matrix(0.73106071,0,0,-0.73106071,64.485025,132.77545)"
           style="fill:#ffffff">
          <path
             d="m 0,0 0.004,0.015 c -21.961,2.429 -37.811,22.372 -35.409,44.54 2.37,21.81 21.53,37.65 43.059,35.841 -43.502,4.237 -82.423,-27.609 -87.197,-71.602 -4.811,-44.346 26.899,-84.24 70.828,-89.093 v 0.014 c 21.96,-2.431 41.717,13.568 44.123,35.744 C 37.815,-22.37 21.963,-2.43 0,0"
             style="fill:#ffffff;fill-opacity:1;fill-rule:nonzero;stroke:none"
             id="path5224" />
        </g>
        <g
           id="g5230"
           transform="matrix(0.73106071,0,0,-0.73106071,82.666578,187.00883)"
           style="fill:#ffffff">
          <path
             d="m 0,0 -0.013,0.002 c -9.076,-20.331 -32.76,-29.388 -52.903,-20.227 -19.812,9.009 -28.817,32.304 -20.462,52.411 -17.43,-40.456 0.543,-87.66 40.512,-105.835 40.287,-18.329 87.668,-0.211 105.823,40.461 l -0.016,0.006 C 82.017,-12.846 73.046,11.063 52.9,20.226 32.762,29.39 9.077,20.327 0,0"
             style="fill:#ffffff;fill-opacity:1;fill-rule:nonzero;stroke:none"
             id="path5228" />
        </g>
        <g
           id="g5234"
           transform="matrix(0.73106071,0,0,-0.73106071,139.37766,186.31418)"
           style="fill:#ffffff">
          <path
             d="m 0,0 -0.012,-0.014 c 16.354,-14.998 17.565,-40.537 2.715,-57.04 -14.617,-16.238 -39.344,-17.689 -55.708,-3.449 32.732,-29.233 82.757,-26.572 112.235,6.183 29.717,33.018 27.286,84.11 -5.423,114.111 L 53.795,59.779 C 37.445,74.774 12.15,73.548 -2.709,57.041 -17.566,40.53 -16.348,14.996 0,0"
             style="fill:#ffffff;fill-opacity:1;fill-rule:nonzero;stroke:none"
             id="path5232" />
        </g>
      </g>
      <g
         id="g5258"
         style="fill:#ffffff">
        <g
           transform="matrix(0.73106071,0,0,-0.73106071,156.24638,131.64816)"
           id="g5240"
           style="fill:#ffffff">
          <path
             id="path5238"
             style="fill:#ffffff;fill-opacity:1;fill-rule:nonzero;stroke:none"
             d="M 0,0 0.014,-0.017 C 19.191,11.053 43.625,4.325 54.59,-15.04 65.379,-34.091 59.102,-58.275 40.627,-69.589 78.287,-47.196 91.227,1.659 69.477,40.078 47.553,78.816 -1.332,92.271 -39.699,70.135 l 0.01,-0.017 C -58.873,59.056 -65.536,34.389 -54.576,15.021 -43.613,-4.343 -19.176,-11.066 0,0" />
        </g>
        <g
           transform="matrix(0.73106071,0,0,-0.73106071,109.96395,98.561883)"
           id="g5244"
           style="fill:#ffffff">
          <path
             id="path5242"
             style="fill:#ffffff;fill-opacity:1;fill-rule:nonzero;stroke:none"
             d="m 0,0 0.012,0.007 c -4.493,21.833 9.39,43.213 31.015,47.755 21.286,4.469 42.131,-9.029 47.08,-30.263 -9.457,43.073 -51.49,70.6 -94.401,61.594 -43.267,-9.087 -71.051,-51.854 -62.052,-95.537 l 0.016,0.004 c 4.496,-21.837 25.678,-35.857 47.307,-31.318 C -9.396,-43.216 4.494,-21.833 0,0" />
        </g>
        <g
           transform="matrix(0.73106071,0,0,-0.73106071,64.485025,132.77545)"
           id="g5248"
           style="fill:#ffffff">
          <path
             id="path5246"
             style="fill:#ffffff;fill-opacity:1;fill-rule:nonzero;stroke:none"
             d="m 0,0 0.004,0.015 c -21.961,2.429 -37.811,22.372 -35.409,44.54 2.37,21.81 21.53,37.65 43.059,35.841 -43.502,4.237 -82.423,-27.609 -87.197,-71.602 -4.811,-44.346 26.899,-84.24 70.828,-89.093 v 0.014 c 21.96,-2.431 41.717,13.568 44.123,35.744 C 37.815,-22.37 21.963,-2.43 0,0" />
        </g>
        <g
           transform="matrix(0.73106071,0,0,-0.73106071,82.666578,187.00883)"
           id="g5252"
           style="fill:#ffffff">
          <path
             id="path5250"
             style="fill:#ffffff;fill-opacity:1;fill-rule:nonzero;stroke:none"
             d="m 0,0 -0.013,0.002 c -9.076,-20.331 -32.76,-29.388 -52.903,-20.227 -19.812,9.009 -28.817,32.304 -20.462,52.411 -17.43,-40.456 0.543,-87.66 40.512,-105.835 40.287,-18.329 87.668,-0.211 105.823,40.461 l -0.016,0.006 C 82.017,-12.846 73.046,11.063 52.9,20.226 32.762,29.39 9.077,20.327 0,0" />
        </g>
        <g
           transform="matrix(0.73106071,0,0,-0.73106071,139.37766,186.31418)"
           id="g5256"
           style="fill:#ffffff">
          <path
             id="path5254"
             style="fill:#ffffff;fill-opacity:1;fill-rule:nonzero;stroke:none"
             d="m 0,0 -0.012,-0.014 c 16.354,-14.998 17.565,-40.537 2.715,-57.04 -14.617,-16.238 -39.344,-17.689 -55.708,-3.449 32.732,-29.233 82.757,-26.572 112.235,6.183 29.717,33.018 27.286,84.11 -5.423,114.111 L 53.795,59.779 C 37.445,74.774 12.15,73.548 -2.709,57.041 -17.566,40.53 -16.348,14.996 0,0" />
        </g>
      </g>
      <g
         id="g5299"
         style="fill:#ffffff">
        <g
           id="g5281"
           transform="matrix(0.73106071,0,0,-0.73106071,156.24638,131.64816)"
           style="fill:#ffffff">
          <path
             d="M 0,0 0.014,-0.017 C 19.191,11.053 43.625,4.325 54.59,-15.04 65.379,-34.091 59.102,-58.275 40.627,-69.589 78.287,-47.196 91.227,1.659 69.477,40.078 47.553,78.816 -1.332,92.271 -39.699,70.135 l 0.01,-0.017 C -58.873,59.056 -65.536,34.389 -54.576,15.021 -43.613,-4.343 -19.176,-11.066 0,0"
             style="fill:#ffffff;fill-opacity:1;fill-rule:nonzero;stroke:none"
             id="path5279" />
        </g>
        <g
           id="g5285"
           transform="matrix(0.73106071,0,0,-0.73106071,109.96395,98.561883)"
           style="fill:#ffffff">
          <path
             d="m 0,0 0.012,0.007 c -4.493,21.833 9.39,43.213 31.015,47.755 21.286,4.469 42.131,-9.029 47.08,-30.263 -9.457,43.073 -51.49,70.6 -94.401,61.594 -43.267,-9.087 -71.051,-51.854 -62.052,-95.537 l 0.016,0.004 c 4.496,-21.837 25.678,-35.857 47.307,-31.318 C -9.396,-43.216 4.494,-21.833 0,0"
             style="fill:#ffffff;fill-opacity:1;fill-rule:nonzero;stroke:none"
             id="path5283" />
        </g>
        <g
           id="g5289"
           transform="matrix(0.73106071,0,0,-0.73106071,64.485025,132.77545)"
           style="fill:#ffffff">
          <path
             d="m 0,0 0.004,0.015 c -21.961,2.429 -37.811,22.372 -35.409,44.54 2.37,21.81 21.53,37.65 43.059,35.841 -43.502,4.237 -82.423,-27.609 -87.197,-71.602 -4.811,-44.346 26.899,-84.24 70.828,-89.093 v 0.014 c 21.96,-2.431 41.717,13.568 44.123,35.744 C 37.815,-22.37 21.963,-2.43 0,0"
             style="fill:#ffffff;fill-opacity:1;fill-rule:nonzero;stroke:none"
             id="path5287" />
        </g>
        <g
           id="g5293"
           transform="matrix(0.73106071,0,0,-0.73106071,82.666578,187.00883)"
           style="fill:#ffffff">
          <path
             d="m 0,0 -0.013,0.002 c -9.076,-20.331 -32.76,-29.388 -52.903,-20.227 -19.812,9.009 -28.817,32.304 -20.462,52.411 -17.43,-40.456 0.543,-87.66 40.512,-105.835 40.287,-18.329 87.668,-0.211 105.823,40.461 l -0.016,0.006 C 82.017,-12.846 73.046,11.063 52.9,20.226 32.762,29.39 9.077,20.327 0,0"
             style="fill:#ffffff;fill-opacity:1;fill-rule:nonzero;stroke:none"
             id="path5291" />
        </g>
        <g
           id="g5297"
           transform="matrix(0.73106071,0,0,-0.73106071,139.37766,186.31418)"
           style="fill:#ffffff">
          <path
             d="m 0,0 -0.012,-0.014 c 16.354,-14.998 17.565,-40.537 2.715,-57.04 -14.617,-16.238 -39.344,-17.689 -55.708,-3.449 32.732,-29.233 82.757,-26.572 112.235,6.183 29.717,33.018 27.286,84.11 -5.423,114.111 L 53.795,59.779 C 37.445,74.774 12.15,73.548 -2.709,57.041 -17.566,40.53 -16.348,14.996 0,0"
             style="fill:#ffffff;fill-opacity:1;fill-rule:nonzero;stroke:none"
             id="path5295" />
        </g>
      </g>
      <g
         id="g5340"
         style="fill:#ffffff">
        <g
           transform="matrix(0.73106071,0,0,-0.73106071,156.24638,131.64816)"
           id="g5322"
           style="fill:#ffffff">
          <path
             id="path5320"
             style="fill:#ffffff;fill-opacity:1;fill-rule:nonzero;stroke:none"
             d="M 0,0 0.014,-0.017 C 19.191,11.053 43.625,4.325 54.59,-15.04 65.379,-34.091 59.102,-58.275 40.627,-69.589 78.287,-47.196 91.227,1.659 69.477,40.078 47.553,78.816 -1.332,92.271 -39.699,70.135 l 0.01,-0.017 C -58.873,59.056 -65.536,34.389 -54.576,15.021 -43.613,-4.343 -19.176,-11.066 0,0" />
        </g>
        <g
           transform="matrix(0.73106071,0,0,-0.73106071,109.96395,98.561883)"
           id="g5326"
           style="fill:#ffffff">
          <path
             id="path5324"
             style="fill:#ffffff;fill-opacity:1;fill-rule:nonzero;stroke:none"
             d="m 0,0 0.012,0.007 c -4.493,21.833 9.39,43.213 31.015,47.755 21.286,4.469 42.131,-9.029 47.08,-30.263 -9.457,43.073 -51.49,70.6 -94.401,61.594 -43.267,-9.087 -71.051,-51.854 -62.052,-95.537 l 0.016,0.004 c 4.496,-21.837 25.678,-35.857 47.307,-31.318 C -9.396,-43.216 4.494,-21.833 0,0" />
        </g>
        <g
           transform="matrix(0.73106071,0,0,-0.73106071,64.485025,132.77545)"
           id="g5330"
           style="fill:#ffffff">
          <path
             id="path5328"
             style="fill:#ffffff;fill-opacity:1;fill-rule:nonzero;stroke:none"
             d="m 0,0 0.004,0.015 c -21.961,2.429 -37.811,22.372 -35.409,44.54 2.37,21.81 21.53,37.65 43.059,35.841 -43.502,4.237 -82.423,-27.609 -87.197,-71.602 -4.811,-44.346 26.899,-84.24 70.828,-89.093 v 0.014 c 21.96,-2.431 41.717,13.568 44.123,35.744 C 37.815,-22.37 21.963,-2.43 0,0" />
        </g>
        <g
           transform="matrix(0.73106071,0,0,-0.73106071,82.666578,187.00883)"
           id="g5334"
           style="fill:#ffffff">
          <path
             id="path5332"
             style="fill:#ffffff;fill-opacity:1;fill-rule:nonzero;stroke:none"
             d="m 0,0 -0.013,0.002 c -9.076,-20.331 -32.76,-29.388 -52.903,-20.227 -19.812,9.009 -28.817,32.304 -20.462,52.411 -17.43,-40.456 0.543,-87.66 40.512,-105.835 40.287,-18.329 87.668,-0.211 105.823,40.461 l -0.016,0.006 C 82.017,-12.846 73.046,11.063 52.9,20.226 32.762,29.39 9.077,20.327 0,0" />
        </g>
        <g
           transform="matrix(0.73106071,0,0,-0.73106071,139.37766,186.31418)"
           id="g5338"
           style="fill:#ffffff">
          <path
             id="path5336"
             style="fill:#ffffff;fill-opacity:1;fill-rule:nonzero;stroke:none"
             d="m 0,0 -0.012,-0.014 c 16.354,-14.998 17.565,-40.537 2.715,-57.04 -14.617,-16.238 -39.344,-17.689 -55.708,-3.449 32.732,-29.233 82.757,-26.572 112.235,6.183 29.717,33.018 27.286,84.11 -5.423,114.111 L 53.795,59.779 C 37.445,74.774 12.15,73.548 -2.709,57.041 -17.566,40.53 -16.348,14.996 0,0" />
        </g>
      </g>
      <g
         id="g5362"
         style="fill:#ffffff">
        <g
           id="g5344"
           transform="matrix(0.73106071,0,0,-0.73106071,156.24638,131.64816)"
           style="fill:#ffffff">
          <path
             d="M 0,0 0.014,-0.017 C 19.191,11.053 43.625,4.325 54.59,-15.04 65.379,-34.091 59.102,-58.275 40.627,-69.589 78.287,-47.196 91.227,1.659 69.477,40.078 47.553,78.816 -1.332,92.271 -39.699,70.135 l 0.01,-0.017 C -58.873,59.056 -65.536,34.389 -54.576,15.021 -43.613,-4.343 -19.176,-11.066 0,0"
             style="fill:#ffffff;fill-opacity:1;fill-rule:nonzero;stroke:none"
             id="path5342" />
        </g>
        <g
           id="g5348"
           transform="matrix(0.73106071,0,0,-0.73106071,109.96395,98.561883)"
           style="fill:#ffffff">
          <path
             d="m 0,0 0.012,0.007 c -4.493,21.833 9.39,43.213 31.015,47.755 21.286,4.469 42.131,-9.029 47.08,-30.263 -9.457,43.073 -51.49,70.6 -94.401,61.594 -43.267,-9.087 -71.051,-51.854 -62.052,-95.537 l 0.016,0.004 c 4.496,-21.837 25.678,-35.857 47.307,-31.318 C -9.396,-43.216 4.494,-21.833 0,0"
             style="fill:#ffffff;fill-opacity:1;fill-rule:nonzero;stroke:none"
             id="path5346" />
        </g>
        <g
           id="g5352"
           transform="matrix(0.73106071,0,0,-0.73106071,64.485025,132.77545)"
           style="fill:#ffffff">
          <path
             d="m 0,0 0.004,0.015 c -21.961,2.429 -37.811,22.372 -35.409,44.54 2.37,21.81 21.53,37.65 43.059,35.841 -43.502,4.237 -82.423,-27.609 -87.197,-71.602 -4.811,-44.346 26.899,-84.24 70.828,-89.093 v 0.014 c 21.96,-2.431 41.717,13.568 44.123,35.744 C 37.815,-22.37 21.963,-2.43 0,0"
             style="fill:#ffffff;fill-opacity:1;fill-rule:nonzero;stroke:none"
             id="path5350" />
        </g>
        <g
           id="g5356"
           transform="matrix(0.73106071,0,0,-0.73106071,82.666578,187.00883)"
           style="fill:#ffffff">
          <path
             d="m 0,0 -0.013,0.002 c -9.076,-20.331 -32.76,-29.388 -52.903,-20.227 -19.812,9.009 -28.817,32.304 -20.462,52.411 -17.43,-40.456 0.543,-87.66 40.512,-105.835 40.287,-18.329 87.668,-0.211 105.823,40.461 l -0.016,0.006 C 82.017,-12.846 73.046,11.063 52.9,20.226 32.762,29.39 9.077,20.327 0,0"
             style="fill:#ffffff;fill-opacity:1;fill-rule:nonzero;stroke:none"
             id="path5354" />
        </g>
        <g
           id="g5360"
           transform="matrix(0.73106071,0,0,-0.73106071,139.37766,186.31418)"
           style="fill:#ffffff">
          <path
             d="m 0,0 -0.012,-0.014 c 16.354,-14.998 17.565,-40.537 2.715,-57.04 -14.617,-16.238 -39.344,-17.689 -55.708,-3.449 32.732,-29.233 82.757,-26.572 112.235,6.183 29.717,33.018 27.286,84.11 -5.423,114.111 L 53.795,59.779 C 37.445,74.774 12.15,73.548 -2.709,57.041 -17.566,40.53 -16.348,14.996 0,0"
             style="fill:#ffffff;fill-opacity:1;fill-rule:nonzero;stroke:none"
             id="path5358" />
        </g>
      </g>
      <g
         id="g5384"
         style="fill:#ffffff">
        <g
           transform="matrix(0.73106071,0,0,-0.73106071,156.24638,131.64816)"
           id="g5366"
           style="fill:#ffffff">
          <path
             id="path5364"
             style="fill:#ffffff;fill-opacity:1;fill-rule:nonzero;stroke:none"
             d="M 0,0 0.014,-0.017 C 19.191,11.053 43.625,4.325 54.59,-15.04 65.379,-34.091 59.102,-58.275 40.627,-69.589 78.287,-47.196 91.227,1.659 69.477,40.078 47.553,78.816 -1.332,92.271 -39.699,70.135 l 0.01,-0.017 C -58.873,59.056 -65.536,34.389 -54.576,15.021 -43.613,-4.343 -19.176,-11.066 0,0" />
        </g>
        <g
           transform="matrix(0.73106071,0,0,-0.73106071,109.96395,98.561883)"
           id="g5370"
           style="fill:#ffffff">
          <path
             id="path5368"
             style="fill:#ffffff;fill-opacity:1;fill-rule:nonzero;stroke:none"
             d="m 0,0 0.012,0.007 c -4.493,21.833 9.39,43.213 31.015,47.755 21.286,4.469 42.131,-9.029 47.08,-30.263 -9.457,43.073 -51.49,70.6 -94.401,61.594 -43.267,-9.087 -71.051,-51.854 -62.052,-95.537 l 0.016,0.004 c 4.496,-21.837 25.678,-35.857 47.307,-31.318 C -9.396,-43.216 4.494,-21.833 0,0" />
        </g>
        <g
           transform="matrix(0.73106071,0,0,-0.73106071,64.485025,132.77545)"
           id="g5374"
           style="fill:#ffffff">
          <path
             id="path5372"
             style="fill:#ffffff;fill-opacity:1;fill-rule:nonzero;stroke:none"
             d="m 0,0 0.004,0.015 c -21.961,2.429 -37.811,22.372 -35.409,44.54 2.37,21.81 21.53,37.65 43.059,35.841 -43.502,4.237 -82.423,-27.609 -87.197,-71.602 -4.811,-44.346 26.899,-84.24 70.828,-89.093 v 0.014 c 21.96,-2.431 41.717,13.568 44.123,35.744 C 37.815,-22.37 21.963,-2.43 0,0" />
        </g>
        <g
           transform="matrix(0.73106071,0,0,-0.73106071,82.666578,187.00883)"
           id="g5378"
           style="fill:#ffffff">
          <path
             id="path5376"
             style="fill:#ffffff;fill-opacity:1;fill-rule:nonzero;stroke:none"
             d="m 0,0 -0.013,0.002 c -9.076,-20.331 -32.76,-29.388 -52.903,-20.227 -19.812,9.009 -28.817,32.304 -20.462,52.411 -17.43,-40.456 0.543,-87.66 40.512,-105.835 40.287,-18.329 87.668,-0.211 105.823,40.461 l -0.016,0.006 C 82.017,-12.846 73.046,11.063 52.9,20.226 32.762,29.39 9.077,20.327 0,0" />
        </g>
        <g
           transform="matrix(0.73106071,0,0,-0.73106071,139.37766,186.31418)"
           id="g5382"
           style="fill:#ffffff">
          <path
             id="path5380"
             style="fill:#ffffff;fill-opacity:1;fill-rule:nonzero;stroke:none"
             d="m 0,0 -0.012,-0.014 c 16.354,-14.998 17.565,-40.537 2.715,-57.04 -14.617,-16.238 -39.344,-17.689 -55.708,-3.449 32.732,-29.233 82.757,-26.572 112.235,6.183 29.717,33.018 27.286,84.11 -5.423,114.111 L 53.795,59.779 C 37.445,74.774 12.15,73.548 -2.709,57.041 -17.566,40.53 -16.348,14.996 0,0" />
        </g>
      </g>
      <g
         id="g5406"
         style="fill:#ffffff">
        <g
           id="g5388"
           transform="matrix(0.73106071,0,0,-0.73106071,156.24638,131.64816)"
           style="fill:#ffffff">
          <path
             d="M 0,0 0.014,-0.017 C 19.191,11.053 43.625,4.325 54.59,-15.04 65.379,-34.091 59.102,-58.275 40.627,-69.589 78.287,-47.196 91.227,1.659 69.477,40.078 47.553,78.816 -1.332,92.271 -39.699,70.135 l 0.01,-0.017 C -58.873,59.056 -65.536,34.389 -54.576,15.021 -43.613,-4.343 -19.176,-11.066 0,0"
             style="fill:#ffffff;fill-opacity:1;fill-rule:nonzero;stroke:none"
             id="path5386" />
        </g>
        <g
           id="g5392"
           transform="matrix(0.73106071,0,0,-0.73106071,109.96395,98.561883)"
           style="fill:#ffffff">
          <path
             d="m 0,0 0.012,0.007 c -4.493,21.833 9.39,43.213 31.015,47.755 21.286,4.469 42.131,-9.029 47.08,-30.263 -9.457,43.073 -51.49,70.6 -94.401,61.594 -43.267,-9.087 -71.051,-51.854 -62.052,-95.537 l 0.016,0.004 c 4.496,-21.837 25.678,-35.857 47.307,-31.318 C -9.396,-43.216 4.494,-21.833 0,0"
             style="fill:#ffffff;fill-opacity:1;fill-rule:nonzero;stroke:none"
             id="path5390" />
        </g>
        <g
           id="g5396"
           transform="matrix(0.73106071,0,0,-0.73106071,64.485025,132.77545)"
           style="fill:#ffffff">
          <path
             d="m 0,0 0.004,0.015 c -21.961,2.429 -37.811,22.372 -35.409,44.54 2.37,21.81 21.53,37.65 43.059,35.841 -43.502,4.237 -82.423,-27.609 -87.197,-71.602 -4.811,-44.346 26.899,-84.24 70.828,-89.093 v 0.014 c 21.96,-2.431 41.717,13.568 44.123,35.744 C 37.815,-22.37 21.963,-2.43 0,0"
             style="fill:#ffffff;fill-opacity:1;fill-rule:nonzero;stroke:none"
             id="path5394" />
        </g>
        <g
           id="g5400"
           transform="matrix(0.73106071,0,0,-0.73106071,82.666578,187.00883)"
           style="fill:#ffffff">
          <path
             d="m 0,0 -0.013,0.002 c -9.076,-20.331 -32.76,-29.388 -52.903,-20.227 -19.812,9.009 -28.817,32.304 -20.462,52.411 -17.43,-40.456 0.543,-87.66 40.512,-105.835 40.287,-18.329 87.668,-0.211 105.823,40.461 l -0.016,0.006 C 82.017,-12.846 73.046,11.063 52.9,20.226 32.762,29.39 9.077,20.327 0,0"
             style="fill:#ffffff;fill-opacity:1;fill-rule:nonzero;stroke:none"
             id="path5398" />
        </g>
        <g
           id="g5404"
           transform="matrix(0.73106071,0,0,-0.73106071,139.37766,186.31418)"
           style="fill:#ffffff">
          <path
             d="m 0,0 -0.012,-0.014 c 16.354,-14.998 17.565,-40.537 2.715,-57.04 -14.617,-16.238 -39.344,-17.689 -55.708,-3.449 32.732,-29.233 82.757,-26.572 112.235,6.183 29.717,33.018 27.286,84.11 -5.423,114.111 L 53.795,59.779 C 37.445,74.774 12.15,73.548 -2.709,57.041 -17.566,40.53 -16.348,14.996 0,0"
             style="fill:#ffffff;fill-opacity:1;fill-rule:nonzero;stroke:none"
             id="path5402" />
        </g>
      </g>
      <g
         id="g5428"
         style="fill:#ffffff">
        <g
           transform="matrix(0.73106071,0,0,-0.73106071,156.24638,131.64816)"
           id="g5410"
           style="fill:#ffffff">
          <path
             id="path5408"
             style="fill:#ffffff;fill-opacity:1;fill-rule:nonzero;stroke:none"
             d="M 0,0 0.014,-0.017 C 19.191,11.053 43.625,4.325 54.59,-15.04 65.379,-34.091 59.102,-58.275 40.627,-69.589 78.287,-47.196 91.227,1.659 69.477,40.078 47.553,78.816 -1.332,92.271 -39.699,70.135 l 0.01,-0.017 C -58.873,59.056 -65.536,34.389 -54.576,15.021 -43.613,-4.343 -19.176,-11.066 0,0" />
        </g>
        <g
           transform="matrix(0.73106071,0,0,-0.73106071,109.96395,98.561883)"
           id="g5414"
           style="fill:#ffffff">
          <path
             id="path5412"
             style="fill:#ffffff;fill-opacity:1;fill-rule:nonzero;stroke:none"
             d="m 0,0 0.012,0.007 c -4.493,21.833 9.39,43.213 31.015,47.755 21.286,4.469 42.131,-9.029 47.08,-30.263 -9.457,43.073 -51.49,70.6 -94.401,61.594 -43.267,-9.087 -71.051,-51.854 -62.052,-95.537 l 0.016,0.004 c 4.496,-21.837 25.678,-35.857 47.307,-31.318 C -9.396,-43.216 4.494,-21.833 0,0" />
        </g>
        <g
           transform="matrix(0.73106071,0,0,-0.73106071,64.485025,132.77545)"
           id="g5418"
           style="fill:#ffffff">
          <path
             id="path5416"
             style="fill:#ffffff;fill-opacity:1;fill-rule:nonzero;stroke:none"
             d="m 0,0 0.004,0.015 c -21.961,2.429 -37.811,22.372 -35.409,44.54 2.37,21.81 21.53,37.65 43.059,35.841 -43.502,4.237 -82.423,-27.609 -87.197,-71.602 -4.811,-44.346 26.899,-84.24 70.828,-89.093 v 0.014 c 21.96,-2.431 41.717,13.568 44.123,35.744 C 37.815,-22.37 21.963,-2.43 0,0" />
        </g>
        <g
           transform="matrix(0.73106071,0,0,-0.73106071,82.666578,187.00883)"
           id="g5422"
           style="fill:#ffffff">
          <path
             id="path5420"
             style="fill:#ffffff;fill-opacity:1;fill-rule:nonzero;stroke:none"
             d="m 0,0 -0.013,0.002 c -9.076,-20.331 -32.76,-29.388 -52.903,-20.227 -19.812,9.009 -28.817,32.304 -20.462,52.411 -17.43,-40.456 0.543,-87.66 40.512,-105.835 40.287,-18.329 87.668,-0.211 105.823,40.461 l -0.016,0.006 C 82.017,-12.846 73.046,11.063 52.9,20.226 32.762,29.39 9.077,20.327 0,0" />
        </g>
        <g
           transform="matrix(0.73106071,0,0,-0.73106071,139.37766,186.31418)"
           id="g5426"
           style="fill:#ffffff">
          <path
             id="path5424"
             style="fill:#ffffff;fill-opacity:1;fill-rule:nonzero;stroke:none"
             d="m 0,0 -0.012,-0.014 c 16.354,-14.998 17.565,-40.537 2.715,-57.04 -14.617,-16.238 -39.344,-17.689 -55.708,-3.449 32.732,-29.233 82.757,-26.572 112.235,6.183 29.717,33.018 27.286,84.11 -5.423,114.111 L 53.795,59.779 C 37.445,74.774 12.15,73.548 -2.709,57.041 -17.566,40.53 -16.348,14.996 0,0" />
        </g>
      </g>
      <path
         d="m 156.24638,131.64816 0.0102,0.0124 c 14.01956,-8.09284 31.88229,-3.17427 39.89837,10.98272 7.88742,13.92744 3.29855,31.60741 -10.2078,39.87863 27.53175,-16.37064 36.99168,-52.08661 21.0911,-80.17323 C 191.01051,74.028879 155.27261,64.192457 127.224,80.375217 l 0.007,0.01243 c -14.02467,8.086994 -18.89572,26.120063 -10.8833,40.279253 8.01462,14.15626 25.87955,19.07118 39.89837,10.98126"
         style="fill:#ffffff;fill-opacity:1;fill-rule:nonzero;stroke:none;stroke-width:0.73106068"
         id="path5430" />
      <path
         d="m 109.96395,98.561883 0.009,-0.0051 c -3.28465,-15.961249 6.86466,-31.591327 22.67385,-34.911805 15.56136,-3.26711 30.80032,6.600748 34.41834,22.124091 C 160.15127,54.280074 129.42259,34.156166 98.052047,40.740098 66.421243,47.383247 46.109452,78.64852 52.688268,110.58345 l 0.0117,-0.003 c 3.286849,15.96417 18.772176,26.21364 34.584289,22.89536 15.810643,-3.32048 25.965083,-18.95275 22.679693,-34.913997"
         style="fill:#ffffff;fill-opacity:1;fill-rule:nonzero;stroke:none;stroke-width:0.73106068"
         id="path5434" />
      <path
         d="m 64.485025,132.77545 0.0029,-0.011 C 48.433125,130.98874 36.845813,116.40919 38.601821,100.20304 40.334434,84.258606 54.341558,72.678604 70.080564,74.001093 38.277961,70.903589 9.8243468,94.184948 6.3342629,126.3465 2.8171299,158.76612 25.999065,187.93106 58.113831,191.47889 v -0.0102 c 16.054093,1.77721 30.49766,-9.91903 32.256592,-26.13103 1.759663,-16.20835 -9.829112,-30.7857 -25.885398,-32.56218"
         style="fill:#ffffff;fill-opacity:1;fill-rule:nonzero;stroke:none;stroke-width:0.73106068"
         id="path5438" />
      <path
         d="m 82.666578,187.00883 -0.0095,-10e-4 c -6.635107,14.86319 -23.949549,21.48441 -38.675305,14.78716 -14.483774,-6.58612 -21.066976,-23.61618 -14.958964,-38.31562 -12.742388,29.57579 0.396966,64.08478 29.616732,77.37181 29.452243,13.39961 64.090629,0.15425 77.363029,-29.57945 l -0.0117,-0.004 c 6.6351,-14.86685 0.0768,-32.34578 -14.65119,-39.04449 -14.7221,-6.69944 -32.03727,-0.0738 -38.673108,14.78643"
         style="fill:#ffffff;fill-opacity:1;fill-rule:nonzero;stroke:none;stroke-width:0.73106068"
         id="path5442" />
      <path
         d="m 139.37766,186.31418 -0.009,0.0102 c 11.95576,10.96445 12.84108,29.63501 1.98483,41.69971 -10.68592,11.87096 -28.76286,12.93173 -40.72593,2.52143 23.92908,21.37109 60.50039,19.42574 82.0506,-4.52015 21.72493,-24.13816 19.94772,-61.48952 -3.96455,-83.42207 l -0.009,0.009 c -11.95284,-10.96225 -30.44502,-10.06597 -41.30785,2.00165 -10.86137,12.07054 -9.97094,30.73744 1.98044,41.70043"
         style="fill:#ffffff;fill-opacity:1;fill-rule:nonzero;stroke:none;stroke-width:0.73106068"
         id="path5446" />
    </g>
  </g>
</svg>
